# 3ds Max Wavefront OBJ Exporter v0.97b - (c)2007 guruware
# File Created: 18.10.2019 20:03:49

mtllib barril.mtl

#
# object barril
#

v  -22.7212 3.6121 -13.5468
v  -13.9094 3.6121 -20.9408
v  -11.9119 3.6121 -17.4810
v  -11.2182 3.6121 -13.5468
v  -20.7237 3.6121 -24.8750
v  -16.9697 3.6121 -23.5087
v  -28.4727 3.6121 -23.5087
v  -24.7187 3.6121 -24.8750
v  -33.5305 3.6121 -17.4810
v  -31.5330 3.6121 -20.9408
v  -33.5305 3.6121 -9.6125
v  -34.2242 3.6121 -13.5468
v  -28.4727 3.6121 -3.5849
v  -31.5330 3.6121 -6.1528
v  -20.7237 3.6121 -2.2185
v  -24.7187 3.6121 -2.2185
v  -13.9094 3.6121 -6.1528
v  -16.9697 3.6121 -3.5849
v  -11.9119 3.6121 -9.6125
v  -11.9119 11.7117 -17.4810
v  -11.2182 11.7117 -13.5468
v  -13.9094 11.7117 -20.9408
v  -16.9697 11.7117 -23.5087
v  -20.7237 11.7117 -24.8750
v  -24.7187 11.7117 -24.8750
v  -28.4727 11.7117 -23.5087
v  -31.5330 11.7117 -20.9408
v  -33.5305 11.7117 -17.4810
v  -34.2242 11.7117 -13.5468
v  -33.5305 11.7117 -9.6125
v  -31.5330 11.7117 -6.1528
v  -28.4727 11.7117 -3.5849
v  -24.7187 11.7117 -2.2185
v  -20.7237 11.7117 -2.2185
v  -16.9697 11.7117 -3.5849
v  -13.9094 11.7117 -6.1528
v  -11.9119 11.7117 -9.6125
v  -11.9119 19.8113 -17.4810
v  -11.2182 19.8113 -13.5468
v  -13.9094 19.8113 -20.9408
v  -16.9697 19.8113 -23.5087
v  -20.7237 19.8113 -24.8750
v  -24.7187 19.8113 -24.8750
v  -28.4727 19.8113 -23.5087
v  -31.5330 19.8113 -20.9408
v  -33.5305 19.8113 -17.4810
v  -34.2242 19.8113 -13.5468
v  -33.5305 19.8113 -9.6125
v  -31.5330 19.8113 -6.1528
v  -28.4727 19.8113 -3.5849
v  -24.7187 19.8113 -2.2185
v  -20.7237 19.8113 -2.2185
v  -16.9697 19.8113 -3.5849
v  -13.9094 19.8113 -6.1528
v  -11.9119 19.8113 -9.6125
v  -11.9119 27.9109 -17.4810
v  -11.2182 27.9109 -13.5468
v  -13.9094 27.9109 -20.9408
v  -16.9697 27.9109 -23.5087
v  -20.7237 27.9109 -24.8750
v  -24.7187 27.9109 -24.8750
v  -28.4727 27.9109 -23.5087
v  -31.5330 27.9109 -20.9408
v  -33.5305 27.9109 -17.4810
v  -34.2242 27.9109 -13.5468
v  -33.5305 27.9109 -9.6125
v  -31.5330 27.9109 -6.1528
v  -28.4727 27.9109 -3.5849
v  -24.7187 27.9109 -2.2185
v  -20.7237 27.9109 -2.2185
v  -16.9697 27.9109 -3.5849
v  -13.9094 27.9109 -6.1528
v  -11.9119 27.9109 -9.6125
v  -11.9119 36.0104 -17.4810
v  -11.2182 36.0104 -13.5468
v  -13.9094 36.0104 -20.9408
v  -16.9697 36.0104 -23.5087
v  -20.7237 36.0104 -24.8750
v  -24.7187 36.0104 -24.8750
v  -28.4727 36.0104 -23.5087
v  -31.5330 36.0104 -20.9408
v  -33.5305 36.0104 -17.4810
v  -34.2242 36.0104 -13.5468
v  -33.5305 36.0104 -9.6125
v  -31.5330 36.0104 -6.1528
v  -28.4727 36.0104 -3.5849
v  -24.7187 36.0104 -2.2185
v  -20.7237 36.0104 -2.2185
v  -16.9697 36.0104 -3.5849
v  -13.9094 36.0104 -6.1528
v  -11.9119 36.0104 -9.6125
v  -11.9119 44.1100 -17.4810
v  -11.2182 44.1100 -13.5468
v  -13.9094 44.1100 -20.9408
v  -16.9697 44.1100 -23.5087
v  -20.7237 44.1100 -24.8750
v  -24.7187 44.1100 -24.8750
v  -28.4727 44.1100 -23.5087
v  -31.5330 44.1100 -20.9408
v  -33.5305 44.1100 -17.4810
v  -34.2242 44.1100 -13.5468
v  -33.5305 44.1100 -9.6125
v  -31.5330 44.1100 -6.1528
v  -28.4727 44.1100 -3.5849
v  -24.7187 44.1100 -2.2185
v  -20.7237 44.1100 -2.2185
v  -16.9697 44.1100 -3.5849
v  -13.9094 44.1100 -6.1528
v  -11.9119 44.1100 -9.6125
v  -22.7212 44.1100 -13.5468
# 110 vertices

vn 0.0000 -1.0000 -0.0000
vn 1.0000 0.0000 0.0000
vn 0.9397 0.0000 -0.3420
vn 0.9397 -0.0000 -0.3420
vn 1.0000 -0.0000 0.0000
vn 0.7660 0.0000 -0.6428
vn 0.7660 -0.0000 -0.6428
vn 0.5000 0.0000 -0.8660
vn 0.5000 -0.0000 -0.8660
vn 0.1736 0.0000 -0.9848
vn 0.1736 -0.0000 -0.9848
vn -0.1736 0.0000 -0.9848
vn -0.1736 -0.0000 -0.9848
vn -0.5000 0.0000 -0.8660
vn -0.5000 -0.0000 -0.8660
vn -0.7660 0.0000 -0.6428
vn -0.7660 -0.0000 -0.6428
vn -0.9397 0.0000 -0.3420
vn -0.9397 -0.0000 -0.3420
vn -1.0000 0.0000 -0.0000
vn -1.0000 -0.0000 -0.0000
vn -0.9397 0.0000 0.3420
vn -0.9397 -0.0000 0.3420
vn -0.7660 0.0000 0.6428
vn -0.7660 -0.0000 0.6428
vn -0.5000 0.0000 0.8660
vn -0.5000 -0.0000 0.8660
vn -0.1736 0.0000 0.9848
vn -0.1736 -0.0000 0.9848
vn 0.1736 0.0000 0.9848
vn 0.1736 -0.0000 0.9848
vn 0.5000 0.0000 0.8660
vn 0.5000 -0.0000 0.8660
vn 0.7660 0.0000 0.6428
vn 0.7660 -0.0000 0.6428
vn 0.9397 0.0000 0.3420
vn 0.9397 -0.0000 0.3420
vn 0.0000 1.0000 -0.0000
# 38 vertex normals

vt 0.5000 0.5000 -0.2050
vt 0.1932 0.7574 -0.2050
vt 0.1236 0.6370 -0.2050
vt 0.0995 0.5000 -0.2050
vt 0.4305 0.8944 -0.2050
vt 0.2997 0.8469 -0.2050
vt 0.7003 0.8469 -0.2050
vt 0.5695 0.8944 -0.2050
vt 0.8764 0.6370 -0.2050
vt 0.8068 0.7574 -0.2050
vt 0.8764 0.3630 -0.2050
vt 0.9005 0.5000 -0.2050
vt 0.7003 0.1531 -0.2050
vt 0.8068 0.2426 -0.2050
vt 0.4305 0.1056 -0.2050
vt 0.5695 0.1056 -0.2050
vt 0.1932 0.2426 -0.2050
vt 0.2997 0.1531 -0.2050
vt 0.1236 0.3630 -0.2050
vt 0.5000 -0.2050 0.9005
vt 0.6370 -0.2050 0.8764
vt 0.6370 0.0770 0.8764
vt 0.5000 0.0770 0.9005
vt 0.7574 -0.2050 0.8068
vt 0.7574 0.0770 0.8068
vt 0.1932 -0.2050 0.7574
vt 0.2997 -0.2050 0.8469
vt 0.2997 0.0770 0.8469
vt 0.1932 0.0770 0.7574
vt 0.4305 -0.2050 0.8944
vt 0.4305 0.0770 0.8944
vt 0.5695 -0.2050 0.8944
vt 0.5695 0.0770 0.8944
vt 0.7003 -0.2050 0.8469
vt 0.7003 0.0770 0.8469
vt 0.8068 -0.2050 0.7574
vt 0.8068 0.0770 0.7574
vt 0.2426 -0.2050 0.1932
vt 0.3630 -0.2050 0.1236
vt 0.3630 0.0770 0.1236
vt 0.2426 0.0770 0.1932
vt 0.5000 -0.2050 0.0995
vt 0.5000 0.0770 0.0995
vt 0.6370 -0.2050 0.1236
vt 0.6370 0.0770 0.1236
vt 0.7574 -0.2050 0.1932
vt 0.7574 0.0770 0.1932
vt 0.1932 -0.2050 0.2426
vt 0.2997 -0.2050 0.1531
vt 0.2997 0.0770 0.1531
vt 0.1932 0.0770 0.2426
vt 0.4305 -0.2050 0.1056
vt 0.4305 0.0770 0.1056
vt 0.5695 -0.2050 0.1056
vt 0.5695 0.0770 0.1056
vt 0.7003 -0.2050 0.1531
vt 0.7003 0.0770 0.1531
vt 0.8068 -0.2050 0.2426
vt 0.8068 0.0770 0.2426
vt 0.2426 -0.2050 0.8068
vt 0.3630 -0.2050 0.8764
vt 0.3630 0.0770 0.8764
vt 0.2426 0.0770 0.8068
vt 0.6370 0.3590 0.8764
vt 0.5000 0.3590 0.9005
vt 0.7574 0.3590 0.8068
vt 0.2997 0.3590 0.8469
vt 0.1932 0.3590 0.7574
vt 0.4305 0.3590 0.8944
vt 0.5695 0.3590 0.8944
vt 0.7003 0.3590 0.8469
vt 0.8068 0.3590 0.7574
vt 0.3630 0.3590 0.1236
vt 0.2426 0.3590 0.1932
vt 0.5000 0.3590 0.0995
vt 0.6370 0.3590 0.1236
vt 0.7574 0.3590 0.1932
vt 0.2997 0.3590 0.1531
vt 0.1932 0.3590 0.2426
vt 0.4305 0.3590 0.1056
vt 0.5695 0.3590 0.1056
vt 0.7003 0.3590 0.1531
vt 0.8068 0.3590 0.2426
vt 0.3630 0.3590 0.8764
vt 0.2426 0.3590 0.8068
vt 0.6370 0.6410 0.8764
vt 0.5000 0.6410 0.9005
vt 0.7574 0.6410 0.8068
vt 0.2997 0.6410 0.8469
vt 0.1932 0.6410 0.7574
vt 0.4305 0.6410 0.8944
vt 0.5695 0.6410 0.8944
vt 0.7003 0.6410 0.8469
vt 0.8068 0.6410 0.7574
vt 0.3630 0.6410 0.1236
vt 0.2426 0.6410 0.1932
vt 0.5000 0.6410 0.0995
vt 0.6370 0.6410 0.1236
vt 0.7574 0.6410 0.1932
vt 0.2997 0.6410 0.1531
vt 0.1932 0.6410 0.2426
vt 0.4305 0.6410 0.1056
vt 0.5695 0.6410 0.1056
vt 0.7003 0.6410 0.1531
vt 0.8068 0.6410 0.2426
vt 0.3630 0.6410 0.8764
vt 0.2426 0.6410 0.8068
vt 0.6370 0.9230 0.8764
vt 0.5000 0.9230 0.9005
vt 0.7574 0.9230 0.8068
vt 0.2997 0.9230 0.8469
vt 0.1932 0.9230 0.7574
vt 0.4305 0.9230 0.8944
vt 0.5695 0.9230 0.8944
vt 0.7003 0.9230 0.8469
vt 0.8068 0.9230 0.7574
vt 0.3630 0.9230 0.1236
vt 0.2426 0.9230 0.1932
vt 0.5000 0.9230 0.0995
vt 0.6370 0.9230 0.1236
vt 0.7574 0.9230 0.1932
vt 0.2997 0.9230 0.1531
vt 0.1932 0.9230 0.2426
vt 0.4305 0.9230 0.1056
vt 0.5695 0.9230 0.1056
vt 0.7003 0.9230 0.1531
vt 0.8068 0.9230 0.2426
vt 0.3630 0.9230 0.8764
vt 0.2426 0.9230 0.8068
vt 0.6370 1.2050 0.8764
vt 0.5000 1.2050 0.9005
vt 0.7574 1.2050 0.8068
vt 0.2997 1.2050 0.8469
vt 0.1932 1.2050 0.7574
vt 0.4305 1.2050 0.8944
vt 0.5695 1.2050 0.8944
vt 0.7003 1.2050 0.8469
vt 0.8068 1.2050 0.7574
vt 0.3630 1.2050 0.1236
vt 0.2426 1.2050 0.1932
vt 0.5000 1.2050 0.0995
vt 0.6370 1.2050 0.1236
vt 0.7574 1.2050 0.1932
vt 0.2997 1.2050 0.1531
vt 0.1932 1.2050 0.2426
vt 0.4305 1.2050 0.1056
vt 0.5695 1.2050 0.1056
vt 0.7003 1.2050 0.1531
vt 0.8068 1.2050 0.2426
vt 0.3630 1.2050 0.8764
vt 0.2426 1.2050 0.8068
vt 0.5000 0.5000 1.2050
vt 0.8764 0.3630 1.2050
vt 0.9005 0.5000 1.2050
vt 0.8764 0.6370 1.2050
vt 0.8068 0.7574 1.2050
vt 0.7003 0.8469 1.2050
vt 0.5695 0.8944 1.2050
vt 0.4305 0.8944 1.2050
vt 0.2997 0.8469 1.2050
vt 0.1932 0.7574 1.2050
vt 0.1236 0.6370 1.2050
vt 0.0995 0.5000 1.2050
vt 0.1236 0.3630 1.2050
vt 0.1932 0.2426 1.2050
vt 0.2997 0.1531 1.2050
vt 0.4305 0.1056 1.2050
vt 0.5695 0.1056 1.2050
vt 0.7003 0.1531 1.2050
vt 0.8068 0.2426 1.2050
# 170 texture coords

g barril
usemtl 03___Default
s 1
f 1/1/1 2/2/1 3/3/1 4/4/1 
f 1/1/1 5/5/1 6/6/1 2/2/1 
f 1/1/1 7/7/1 8/8/1 5/5/1 
f 1/1/1 9/9/1 10/10/1 7/7/1 
f 1/1/1 11/11/1 12/12/1 9/9/1 
f 1/1/1 13/13/1 14/14/1 11/11/1 
f 1/1/1 15/15/1 16/16/1 13/13/1 
f 1/1/1 17/17/1 18/18/1 15/15/1 
f 1/1/1 4/4/1 19/19/1 17/17/1 
s 8
f 4/20/2 3/21/3 20/22/4 21/23/5 
f 3/21/3 2/24/6 22/25/7 20/22/4 
f 2/26/6 6/27/8 23/28/9 22/29/7 
f 6/27/8 5/30/10 24/31/11 23/28/9 
f 5/30/10 8/32/12 25/33/13 24/31/11 
f 8/32/12 7/34/14 26/35/15 25/33/13 
f 7/34/14 10/36/16 27/37/17 26/35/15 
f 10/38/16 9/39/18 28/40/19 27/41/17 
f 9/39/18 12/42/20 29/43/21 28/40/19 
f 12/42/20 11/44/22 30/45/23 29/43/21 
f 11/44/22 14/46/24 31/47/25 30/45/23 
f 14/48/24 13/49/26 32/50/27 31/51/25 
f 13/49/26 16/52/28 33/53/29 32/50/27 
f 16/52/28 15/54/30 34/55/31 33/53/29 
f 15/54/30 18/56/32 35/57/33 34/55/31 
f 18/56/32 17/58/34 36/59/35 35/57/33 
f 17/60/34 19/61/36 37/62/37 36/63/35 
f 19/61/36 4/20/2 21/23/5 37/62/37 
f 21/23/5 20/22/4 38/64/4 39/65/5 
f 20/22/4 22/25/7 40/66/7 38/64/4 
f 22/29/7 23/28/9 41/67/8 40/68/7 
f 23/28/9 24/31/11 42/69/10 41/67/8 
f 24/31/11 25/33/13 43/70/12 42/69/10 
f 25/33/13 26/35/15 44/71/15 43/70/12 
f 26/35/15 27/37/17 45/72/16 44/71/15 
f 27/41/17 28/40/19 46/73/18 45/74/16 
f 28/40/19 29/43/21 47/75/21 46/73/18 
f 29/43/21 30/45/23 48/76/22 47/75/21 
f 30/45/23 31/47/25 49/77/24 48/76/22 
f 31/51/25 32/50/27 50/78/27 49/79/24 
f 32/50/27 33/53/29 51/80/29 50/78/27 
f 33/53/29 34/55/31 52/81/31 51/80/29 
f 34/55/31 35/57/33 53/82/33 52/81/31 
f 35/57/33 36/59/35 54/83/34 53/82/33 
f 36/63/35 37/62/37 55/84/36 54/85/34 
f 37/62/37 21/23/5 39/65/5 55/84/36 
f 39/65/5 38/64/4 56/86/3 57/87/2 
f 38/64/4 40/66/7 58/88/6 56/86/3 
f 40/68/7 41/67/8 59/89/8 58/90/6 
f 41/67/8 42/69/10 60/91/10 59/89/8 
f 42/69/10 43/70/12 61/92/12 60/91/10 
f 43/70/12 44/71/15 62/93/14 61/92/12 
f 44/71/15 45/72/16 63/94/16 62/93/14 
f 45/74/16 46/73/18 64/95/18 63/96/16 
f 46/73/18 47/75/21 65/97/20 64/95/18 
f 47/75/21 48/76/22 66/98/22 65/97/20 
f 48/76/22 49/77/24 67/99/24 66/98/22 
f 49/79/24 50/78/27 68/100/26 67/101/24 
f 50/78/27 51/80/29 69/102/28 68/100/26 
f 51/80/29 52/81/31 70/103/30 69/102/28 
f 52/81/31 53/82/33 71/104/32 70/103/30 
f 53/82/33 54/83/34 72/105/34 71/104/32 
f 54/85/34 55/84/36 73/106/36 72/107/34 
f 55/84/36 39/65/5 57/87/2 73/106/36 
f 57/87/2 56/86/3 74/108/3 75/109/2 
f 56/86/3 58/88/6 76/110/6 74/108/3 
f 58/90/6 59/89/8 77/111/8 76/112/6 
f 59/89/8 60/91/10 78/113/10 77/111/8 
f 60/91/10 61/92/12 79/114/12 78/113/10 
f 61/92/12 62/93/14 80/115/14 79/114/12 
f 62/93/14 63/94/16 81/116/16 80/115/14 
f 63/96/16 64/95/18 82/117/18 81/118/16 
f 64/95/18 65/97/20 83/119/20 82/117/18 
f 65/97/20 66/98/22 84/120/22 83/119/20 
f 66/98/22 67/99/24 85/121/24 84/120/22 
f 67/101/24 68/100/26 86/122/26 85/123/24 
f 68/100/26 69/102/28 87/124/28 86/122/26 
f 69/102/28 70/103/30 88/125/30 87/124/28 
f 70/103/30 71/104/32 89/126/32 88/125/30 
f 71/104/32 72/105/34 90/127/34 89/126/32 
f 72/107/34 73/106/36 91/128/36 90/129/34 
f 73/106/36 57/87/2 75/109/2 91/128/36 
f 75/109/2 74/108/3 92/130/3 93/131/2 
f 74/108/3 76/110/6 94/132/6 92/130/3 
f 76/112/6 77/111/8 95/133/8 94/134/6 
f 77/111/8 78/113/10 96/135/10 95/133/8 
f 78/113/10 79/114/12 97/136/12 96/135/10 
f 79/114/12 80/115/14 98/137/14 97/136/12 
f 80/115/14 81/116/16 99/138/16 98/137/14 
f 81/118/16 82/117/18 100/139/18 99/140/16 
f 82/117/18 83/119/20 101/141/20 100/139/18 
f 83/119/20 84/120/22 102/142/22 101/141/20 
f 84/120/22 85/121/24 103/143/24 102/142/22 
f 85/123/24 86/122/26 104/144/26 103/145/24 
f 86/122/26 87/124/28 105/146/28 104/144/26 
f 87/124/28 88/125/30 106/147/30 105/146/28 
f 88/125/30 89/126/32 107/148/32 106/147/30 
f 89/126/32 90/127/34 108/149/34 107/148/32 
f 90/129/34 91/128/36 109/150/36 108/151/34 
f 91/128/36 75/109/2 93/131/2 109/150/36 
s 1
f 110/152/38 109/153/38 93/154/38 92/155/38 
f 110/152/38 92/155/38 94/156/38 95/157/38 
f 110/152/38 95/157/38 96/158/38 97/159/38 
f 110/152/38 97/159/38 98/160/38 99/161/38 
f 110/152/38 99/161/38 100/162/38 101/163/38 
f 110/152/38 101/163/38 102/164/38 103/165/38 
f 110/152/38 103/165/38 104/166/38 105/167/38 
f 110/152/38 105/167/38 106/168/38 107/169/38 
f 110/152/38 107/169/38 108/170/38 109/153/38 
# 108 polygons

