# 3ds Max Wavefront OBJ Exporter v0.97b - (c)2007 guruware
# File Created: 19.10.2019 15:18:58

mtllib barraca.mtl

#
# object Box002
#

v  52.0630 0.6553 -9.6404
v  52.0630 0.6553 -12.6404
v  55.0630 0.6553 -12.6404
v  55.0630 0.6553 -9.6404
v  52.0630 42.8244 -9.6404
v  55.0630 42.8244 -9.6404
v  55.0630 42.8244 -12.6404
v  52.0630 42.8244 -12.6404
# 8 vertices

vn 0.0000 -1.0000 -0.0000
vn 0.0000 1.0000 -0.0000
vn 0.0000 0.0000 1.0000
vn 1.0000 0.0000 -0.0000
vn 0.0000 0.0000 -1.0000
vn -1.0000 0.0000 -0.0000
# 6 vertex normals

vt 1.5900 1.4100 0.3068
vt 1.5900 1.5900 0.3068
vt 1.4100 1.5900 0.3068
vt 1.4100 1.4100 0.3068
vt 1.4100 1.4100 2.8370
vt 1.5900 1.4100 2.8370
vt 1.5900 1.5900 2.8370
vt 1.4100 1.5900 2.8370
vt 1.4100 0.3068 1.4100
vt 1.5900 0.3068 1.4100
vt 1.5900 2.8370 1.4100
vt 1.4100 2.8370 1.4100
vt 1.4100 0.3068 1.5900
vt 1.5900 0.3068 1.5900
vt 1.5900 2.8370 1.5900
vt 1.4100 2.8370 1.5900
# 16 texture coords

g Box002
usemtl 01___Default
s 2
f 1/1/1 2/2/1 3/3/1 4/4/1 
s 4
f 5/5/2 6/6/2 7/7/2 8/8/2 
s 8
f 1/9/3 4/10/3 6/11/3 5/12/3 
s 16
f 4/13/4 3/14/4 7/15/4 6/16/4 
s 32
f 3/13/5 2/14/5 8/15/5 7/16/5 
s 64
f 2/9/6 1/10/6 5/11/6 8/12/6 
# 6 polygons

#
# object Box005
#

v  51.9154 0.5508 28.9690
v  51.9154 0.5508 -13.2572
v  86.9899 0.5508 -13.2572
v  86.9899 0.5508 28.9690
v  51.9154 2.7335 28.9690
v  86.9899 2.7335 28.9690
v  86.9899 2.7335 -13.2572
v  51.9154 2.7335 -13.2572
# 8 vertices

vn 0.0000 -1.0000 -0.0000
vn 0.0000 1.0000 -0.0000
vn 0.0000 0.0000 1.0000
vn 1.0000 0.0000 -0.0000
vn -0.0000 0.0000 -1.0000
vn -1.0000 0.0000 -0.0000
# 6 vertex normals

vt 0.0000 0.0000 0.0000
vt 1.0000 0.0000 0.0000
vt 1.0000 1.0000 0.0000
vt 0.0000 1.0000 0.0000
# 4 texture coords

g Box005
usemtl 08___Default
s 2
f 9/17/7 10/18/7 11/19/7 12/20/7 
s 4
f 13/17/8 14/18/8 15/19/8 16/20/8 
s 8
f 9/17/9 12/18/9 14/19/9 13/20/9 
s 16
f 12/17/10 11/18/10 15/19/10 14/20/10 
s 32
f 11/17/11 10/18/11 16/19/11 15/20/11 
s 64
f 10/17/12 9/18/12 13/19/12 16/20/12 
# 6 polygons

#
# object Box006
#

v  52.0233 41.1767 28.9690
v  52.0233 41.1767 -13.2572
v  86.9885 41.1767 -13.2572
v  86.9885 41.1767 28.9690
v  52.0233 43.3594 28.9690
v  86.9885 43.3594 28.9690
v  86.9885 43.3594 -13.2572
v  52.0233 43.3594 -13.2572
# 8 vertices

vn 0.0000 -1.0000 -0.0000
vn 0.0000 1.0000 -0.0000
vn 0.0000 0.0000 1.0000
vn 1.0000 0.0000 -0.0000
vn -0.0000 0.0000 -1.0000
vn -1.0000 0.0000 -0.0000
# 6 vertex normals

vt 0.0000 0.0000 0.0000
vt 1.0000 0.0000 0.0000
vt 1.0000 1.0000 0.0000
vt 0.0000 1.0000 0.0000
# 4 texture coords

g Box006
usemtl 07___Default
s 2
f 17/21/13 18/22/13 19/23/13 20/24/13 
s 4
f 21/21/14 22/22/14 23/23/14 24/24/14 
s 8
f 17/21/15 20/22/15 22/23/15 21/24/15 
s 16
f 20/21/16 19/22/16 23/23/16 22/24/16 
s 32
f 19/21/17 18/22/17 24/23/17 23/24/17 
s 64
f 18/21/18 17/22/18 21/23/18 24/24/18 
# 6 polygons

#
# object Box007
#

v  83.7699 0.6553 -9.6404
v  83.7699 0.6553 -12.6404
v  86.7699 0.6553 -12.6404
v  86.7699 0.6553 -9.6404
v  83.7699 42.8244 -9.6404
v  86.7699 42.8244 -9.6404
v  86.7699 42.8244 -12.6404
v  83.7699 42.8244 -12.6404
# 8 vertices

vn 0.0000 -1.0000 -0.0000
vn 0.0000 1.0000 -0.0000
vn 0.0000 0.0000 1.0000
vn 1.0000 0.0000 -0.0000
vn 0.0000 0.0000 -1.0000
vn -1.0000 0.0000 -0.0000
# 6 vertex normals

vt 1.5900 1.4100 0.3068
vt 1.5900 1.5900 0.3068
vt 1.4100 1.5900 0.3068
vt 1.4100 1.4100 0.3068
vt 1.4100 1.4100 2.8370
vt 1.5900 1.4100 2.8370
vt 1.5900 1.5900 2.8370
vt 1.4100 1.5900 2.8370
vt 1.4100 0.3068 1.4100
vt 1.5900 0.3068 1.4100
vt 1.5900 2.8370 1.4100
vt 1.4100 2.8370 1.4100
vt 1.4100 0.3068 1.5900
vt 1.5900 0.3068 1.5900
vt 1.5900 2.8370 1.5900
vt 1.4100 2.8370 1.5900
# 16 texture coords

g Box007
usemtl 01___Default
s 2
f 25/25/19 26/26/19 27/27/19 28/28/19 
s 4
f 29/29/20 30/30/20 31/31/20 32/32/20 
s 8
f 25/33/21 28/34/21 30/35/21 29/36/21 
s 16
f 28/37/22 27/38/22 31/39/22 30/40/22 
s 32
f 27/37/23 26/38/23 32/39/23 31/40/23 
s 64
f 26/33/24 25/34/24 29/35/24 32/36/24 
# 6 polygons

#
# object Box008
#

v  52.3662 0.6553 28.7452
v  52.3662 0.6553 25.7452
v  55.3662 0.6553 25.7452
v  55.3662 0.6553 28.7452
v  52.3662 42.8244 28.7452
v  55.3662 42.8244 28.7452
v  55.3662 42.8244 25.7452
v  52.3662 42.8244 25.7452
# 8 vertices

vn 0.0000 -1.0000 -0.0000
vn 0.0000 1.0000 -0.0000
vn 0.0000 0.0000 1.0000
vn 1.0000 0.0000 -0.0000
vn 0.0000 0.0000 -1.0000
vn -1.0000 0.0000 -0.0000
# 6 vertex normals

vt 1.5900 1.4100 0.3068
vt 1.5900 1.5900 0.3068
vt 1.4100 1.5900 0.3068
vt 1.4100 1.4100 0.3068
vt 1.4100 1.4100 2.8370
vt 1.5900 1.4100 2.8370
vt 1.5900 1.5900 2.8370
vt 1.4100 1.5900 2.8370
vt 1.4100 0.3068 1.4100
vt 1.5900 0.3068 1.4100
vt 1.5900 2.8370 1.4100
vt 1.4100 2.8370 1.4100
vt 1.4100 0.3068 1.5900
vt 1.5900 0.3068 1.5900
vt 1.5900 2.8370 1.5900
vt 1.4100 2.8370 1.5900
# 16 texture coords

g Box008
usemtl 01___Default
s 2
f 33/41/25 34/42/25 35/43/25 36/44/25 
s 4
f 37/45/26 38/46/26 39/47/26 40/48/26 
s 8
f 33/49/27 36/50/27 38/51/27 37/52/27 
s 16
f 36/53/28 35/54/28 39/55/28 38/56/28 
s 32
f 35/53/29 34/54/29 40/55/29 39/56/29 
s 64
f 34/49/30 33/50/30 37/51/30 40/52/30 
# 6 polygons

#
# object Box009
#

v  83.7699 0.6553 28.7452
v  83.7699 0.6553 25.7452
v  86.7699 0.6553 25.7452
v  86.7699 0.6553 28.7452
v  83.7699 42.8244 28.7452
v  86.7699 42.8244 28.7452
v  86.7699 42.8244 25.7452
v  83.7699 42.8244 25.7452
# 8 vertices

vn 0.0000 -1.0000 -0.0000
vn 0.0000 1.0000 -0.0000
vn 0.0000 0.0000 1.0000
vn 1.0000 0.0000 -0.0000
vn 0.0000 0.0000 -1.0000
vn -1.0000 0.0000 -0.0000
# 6 vertex normals

vt 1.5900 1.4100 0.3068
vt 1.5900 1.5900 0.3068
vt 1.4100 1.5900 0.3068
vt 1.4100 1.4100 0.3068
vt 1.4100 1.4100 2.8370
vt 1.5900 1.4100 2.8370
vt 1.5900 1.5900 2.8370
vt 1.4100 1.5900 2.8370
vt 1.4100 0.3068 1.4100
vt 1.5900 0.3068 1.4100
vt 1.5900 2.8370 1.4100
vt 1.4100 2.8370 1.4100
vt 1.4100 0.3068 1.5900
vt 1.5900 0.3068 1.5900
vt 1.5900 2.8370 1.5900
vt 1.4100 2.8370 1.5900
# 16 texture coords

g Box009
usemtl 01___Default
s 2
f 41/57/31 42/58/31 43/59/31 44/60/31 
s 4
f 45/61/32 46/62/32 47/63/32 48/64/32 
s 8
f 41/65/33 44/66/33 46/67/33 45/68/33 
s 16
f 44/69/34 43/70/34 47/71/34 46/72/34 
s 32
f 43/69/35 42/70/35 48/71/35 47/72/35 
s 64
f 42/65/36 41/66/36 45/67/36 48/68/36 
# 6 polygons

#
# object Box010
#

v  84.1664 2.7332 28.2834
v  84.1664 40.7364 28.2834
v  55.0901 40.7364 28.2834
v  55.0901 2.7332 28.2834
v  84.1664 2.7332 27.7465
v  55.0901 2.7332 27.7465
v  55.0901 40.7364 27.7465
v  84.1664 40.7364 27.7465
# 8 vertices

vn 0.0000 0.0000 1.0000
vn -0.0000 -0.0000 -1.0000
vn 1.0000 0.0000 -0.0000
vn -0.0000 1.0000 -0.0000
vn -1.0000 -0.0000 0.0000
vn 0.0000 -1.0000 0.0000
# 6 vertex normals

vt 3.2541 1.5143 119.6341
vt 3.2541 3.4857 119.6341
vt 1.7459 3.4857 119.6341
vt 1.7459 1.5143 119.6341
vt 3.2650 1.5002 119.6341
vt 1.7350 1.5002 119.6341
vt 1.7350 3.4998 119.6341
vt 3.2650 3.4998 119.6341
# 8 texture coords

g Box010
usemtl 08___Default
s 2
f 49/73/37 50/74/37 51/75/37 52/76/37 
s 4
f 53/77/38 54/78/38 55/79/38 56/80/38 
s 8
f 49/73/39 53/77/39 56/80/39 50/74/39 
s 16
f 50/74/40 56/80/40 55/79/40 51/75/40 
s 32
f 51/75/41 55/79/41 54/78/41 52/76/41 
s 64
f 52/76/42 54/78/42 53/77/42 49/73/42 
# 6 polygons

#
# object Box011
#

v  84.1664 2.7332 -11.6483
v  84.1664 17.9184 -11.6483
v  55.1516 17.9184 -11.6483
v  55.1516 2.7332 -11.6483
v  84.1664 2.7332 -12.1852
v  55.1516 2.7332 -12.1852
v  55.1516 17.9184 -12.1852
v  84.1664 17.9184 -12.1852
# 8 vertices

vn 0.0000 0.0000 1.0000
vn -0.0000 -0.0000 -1.0000
vn 1.0000 0.0000 -0.0000
vn -0.0000 1.0000 0.0000
vn -1.0000 -0.0000 0.0000
vn 0.0000 -1.0000 -0.0000
# 6 vertex normals

vt 2.1576 1.1559 982.5804
vt 2.1576 1.8441 982.5804
vt 0.8424 1.8441 982.5807
vt 0.8424 1.1559 982.5804
vt 2.1714 1.1486 982.5804
vt 0.8286 1.1486 982.5804
vt 0.8286 1.8514 982.5807
vt 2.1714 1.8514 982.5804
# 8 texture coords

g Box011
usemtl 08___Default
s 2
f 57/81/43 58/82/43 59/83/43 60/84/43 
s 4
f 61/85/44 62/86/44 63/87/44 64/88/44 
s 8
f 57/81/45 61/85/45 64/88/45 58/82/45 
s 16
f 58/82/46 64/88/46 63/87/46 59/83/46 
s 32
f 59/83/47 63/87/47 62/86/47 60/84/47 
s 64
f 60/84/48 62/86/48 61/85/48 57/81/48 
# 6 polygons

#
# object Box012
#

v  85.8400 2.7332 25.6554
v  85.8400 17.9184 25.6554
v  85.8400 17.9184 -9.5680
v  85.8400 2.7332 -9.5680
v  86.3769 2.7332 25.6554
v  86.3769 2.7332 -9.5680
v  86.3769 17.9184 -9.5680
v  86.3769 17.9184 25.6554
# 8 vertices

vn -1.0000 -0.0000 -0.0000
vn 1.0000 0.0000 0.0000
vn 0.0000 0.0000 1.0000
vn -0.0000 1.0000 -0.0000
vn 0.0000 -0.0000 -1.0000
vn 0.0000 -1.0000 -0.0000
# 6 vertex normals

vt 2.1826 1.2057 396.8387
vt 2.1826 1.7943 396.8387
vt 0.8174 1.7943 396.8387
vt 0.8174 1.2057 396.8387
vt 2.1949 1.2004 396.8387
vt 0.8051 1.2004 396.8387
vt 0.8051 1.7996 396.8387
vt 2.1949 1.7996 396.8387
# 8 texture coords

g Box012
usemtl 08___Default
s 2
f 65/89/49 66/90/49 67/91/49 68/92/49 
s 4
f 69/93/50 70/94/50 71/95/50 72/96/50 
s 8
f 65/89/51 69/93/51 72/96/51 66/90/51 
s 16
f 66/90/52 72/96/52 71/95/52 67/91/52 
s 32
f 67/91/53 71/95/53 70/94/53 68/92/53 
s 64
f 68/92/54 70/94/54 69/93/54 65/89/54 
# 6 polygons

#
# object Box013
#

v  52.4619 2.7332 25.6554
v  52.4619 17.9184 25.6554
v  52.4619 17.9184 -9.5680
v  52.4619 2.7332 -9.5680
v  52.9988 2.7332 25.6554
v  52.9988 2.7332 -9.5680
v  52.9988 17.9184 -9.5680
v  52.9988 17.9184 25.6554
# 8 vertices

vn -1.0000 -0.0000 -0.0000
vn 1.0000 0.0000 0.0000
vn 0.0000 0.0000 1.0000
vn -0.0000 1.0000 -0.0000
vn 0.0000 -0.0000 -1.0000
vn 0.0000 -1.0000 -0.0000
# 6 vertex normals

vt 2.1826 1.2057 396.8387
vt 2.1826 1.7943 396.8387
vt 0.8174 1.7943 396.8387
vt 0.8174 1.2057 396.8387
vt 2.1949 1.2004 396.8387
vt 0.8051 1.2004 396.8387
vt 0.8051 1.7996 396.8387
vt 2.1949 1.7996 396.8387
# 8 texture coords

g Box013
usemtl 08___Default
s 2
f 73/97/55 74/98/55 75/99/55 76/100/55 
s 4
f 77/101/56 78/102/56 79/103/56 80/104/56 
s 8
f 73/97/57 77/101/57 80/104/57 74/98/57 
s 16
f 74/98/58 80/104/58 79/103/58 75/99/58 
s 32
f 75/99/59 79/103/59 78/102/59 76/100/59 
s 64
f 76/100/60 78/102/60 77/101/60 73/97/60 
# 6 polygons

#
# object Box014
#

v  51.8766 18.3467 25.8210
v  51.8766 18.3467 -9.5866
v  57.0674 18.3467 -9.5866
v  57.0674 18.3467 25.8210
v  51.8766 19.3465 25.8210
v  57.0674 19.3465 25.8210
v  57.0674 19.3465 -9.5866
v  51.8766 19.3465 -9.5866
# 8 vertices

vn 0.0000 -1.0000 -0.0000
vn 0.0000 1.0000 -0.0000
vn 0.0000 0.0000 1.0000
vn 1.0000 0.0000 -0.0000
vn 0.0000 0.0000 -1.0000
vn -1.0000 0.0000 -0.0000
# 6 vertex normals

vt 0.6872 -0.7768 0.4639
vt 0.6872 1.7768 0.4639
vt 0.3128 1.7768 0.4639
vt 0.3128 -0.7768 0.4639
vt 0.3128 -0.7768 0.5361
vt 0.6872 -0.7768 0.5361
vt 0.6872 1.7768 0.5361
vt 0.3128 1.7768 0.5361
vt 0.3128 0.4639 -0.7768
vt 0.6872 0.4639 -0.7768
vt 0.6872 0.5361 -0.7768
vt 0.3128 0.5361 -0.7768
vt -0.7768 0.4639 0.6872
vt 1.7768 0.4639 0.6872
vt 1.7768 0.5361 0.6872
vt -0.7768 0.5361 0.6872
vt 0.3128 0.4639 1.7768
vt 0.6872 0.4639 1.7768
vt 0.6872 0.5361 1.7768
vt 0.3128 0.5361 1.7768
vt -0.7768 0.4639 0.3128
vt 1.7768 0.4639 0.3128
vt 1.7768 0.5361 0.3128
vt -0.7768 0.5361 0.3128
# 24 texture coords

g Box014
usemtl 07___Default
s 2
f 81/105/61 82/106/61 83/107/61 84/108/61 
s 4
f 85/109/62 86/110/62 87/111/62 88/112/62 
s 8
f 81/113/63 84/114/63 86/115/63 85/116/63 
s 16
f 84/117/64 83/118/64 87/119/64 86/120/64 
s 32
f 83/121/65 82/122/65 88/123/65 87/124/65 
s 64
f 82/125/66 81/126/66 85/127/66 88/128/66 
# 6 polygons

#
# object Box015
#

v  83.7573 18.3467 26.1035
v  82.5216 18.3467 -9.2825
v  87.7092 18.3467 -9.4637
v  88.9449 18.3467 25.9223
v  83.7573 19.3465 26.1035
v  88.9449 19.3465 25.9223
v  87.7092 19.3465 -9.4637
v  82.5216 19.3465 -9.2825
# 8 vertices

vn 0.0000 -1.0000 -0.0000
vn 0.0000 1.0000 -0.0000
vn 0.0349 0.0000 0.9994
vn 0.9994 0.0000 -0.0349
vn -0.0349 0.0000 -0.9994
vn -0.9994 0.0000 0.0349
# 6 vertex normals

vt 0.6872 -0.7768 0.4639
vt 0.6872 1.7768 0.4639
vt 0.3128 1.7768 0.4639
vt 0.3128 -0.7768 0.4639
vt 0.3128 -0.7768 0.5361
vt 0.6872 -0.7768 0.5361
vt 0.6872 1.7768 0.5361
vt 0.3128 1.7768 0.5361
vt 0.3128 0.4639 -0.7768
vt 0.6872 0.4639 -0.7768
vt 0.6872 0.5361 -0.7768
vt 0.3128 0.5361 -0.7768
vt -0.7768 0.4639 0.6872
vt 1.7768 0.4639 0.6872
vt 1.7768 0.5361 0.6872
vt -0.7768 0.5361 0.6872
vt 0.3128 0.4639 1.7768
vt 0.6872 0.4639 1.7768
vt 0.6872 0.5361 1.7768
vt 0.3128 0.5361 1.7768
vt -0.7768 0.4639 0.3128
vt 1.7768 0.4639 0.3128
vt 1.7768 0.5361 0.3128
vt -0.7768 0.5361 0.3128
# 24 texture coords

g Box015
usemtl 07___Default
s 2
f 89/129/67 90/130/67 91/131/67 92/132/67 
s 4
f 93/133/68 94/134/68 95/135/68 96/136/68 
s 8
f 89/137/69 92/138/69 94/139/69 93/140/69 
s 16
f 92/141/70 91/142/70 95/143/70 94/144/70 
s 32
f 91/145/71 90/146/71 96/147/71 95/148/71 
s 64
f 90/149/72 89/150/72 93/151/72 96/152/72 
# 6 polygons

#
# object Box016
#

v  87.7437 18.3467 -9.3129
v  51.8919 18.3467 -9.3129
v  51.8919 18.3467 -15.1931
v  87.7437 18.3467 -15.1931
v  87.7437 19.3465 -9.3129
v  87.7437 19.3465 -15.1931
v  51.8919 19.3465 -15.1931
v  51.8919 19.3465 -9.3129
# 8 vertices

vn 0.0000 -1.0000 -0.0000
vn 0.0000 1.0000 -0.0000
vn 1.0000 0.0000 0.0000
vn 0.0000 0.0000 -1.0000
vn -1.0000 0.0000 -0.0000
vn -0.0000 0.0000 1.0000
# 6 vertex normals

vt 0.7064 -0.7585 0.4649
vt 0.7064 1.7585 0.4649
vt 0.2936 1.7585 0.4649
vt 0.2936 -0.7585 0.4649
vt 0.2936 -0.7585 0.5351
vt 0.7064 -0.7585 0.5351
vt 0.7064 1.7585 0.5351
vt 0.2936 1.7585 0.5351
vt 0.2936 0.4649 -0.7585
vt 0.7064 0.4649 -0.7585
vt 0.7064 0.5351 -0.7585
vt 0.2936 0.5351 -0.7585
vt -0.7585 0.4649 0.7064
vt 1.7585 0.4649 0.7064
vt 1.7585 0.5351 0.7064
vt -0.7585 0.5351 0.7064
vt 0.2936 0.4649 1.7585
vt 0.7064 0.4649 1.7585
vt 0.7064 0.5351 1.7585
vt 0.2936 0.5351 1.7585
vt -0.7585 0.4649 0.2936
vt 1.7585 0.4649 0.2936
vt 1.7585 0.5351 0.2936
vt -0.7585 0.5351 0.2936
# 24 texture coords

g Box016
usemtl 07___Default
s 2
f 97/153/73 98/154/73 99/155/73 100/156/73 
s 4
f 101/157/74 102/158/74 103/159/74 104/160/74 
s 8
f 97/161/75 100/162/75 102/163/75 101/164/75 
s 16
f 100/165/76 99/166/76 103/167/76 102/168/76 
s 32
f 99/169/77 98/170/77 104/171/77 103/172/77 
s 64
f 98/173/78 97/174/78 101/175/78 104/176/78 
# 6 polygons

