# 3ds Max Wavefront OBJ Exporter v0.97b - (c)2007 guruware
# File Created: 29.11.2019 16:34:10

mtllib flecha2.mtl

#
# object flecha
#

v  11.5149 -0.8070 0.4006
v  11.5703 -0.8339 -0.3385
v  17.2222 -0.6577 0.1967
v  11.5703 -0.1308 -0.3385
v  11.5149 -0.1038 0.4006
v  10.5998 -0.8255 0.1567
v  10.5998 -0.1224 0.1567
v  10.6035 -0.7715 -0.1870
v  10.6035 -0.0684 -0.1870
v  -13.2532 -0.4807 -0.6524
v  -13.2303 -0.4822 -0.2646
v  -13.2303 0.2210 -0.2646
v  -13.2532 0.2224 -0.6524
v  -4.1843 -0.5599 0.0560
v  -4.1843 0.1433 0.0560
v  -4.3573 -0.5532 -0.3313
v  -4.3573 0.1499 -0.3313
v  4.7236 -0.6235 0.1898
v  4.7236 0.0797 0.1898
v  7.4765 -0.6995 0.1451
v  4.5981 -0.6185 -0.1915
v  7.4158 -0.6967 -0.2536
v  7.4158 0.0065 -0.2536
v  4.5981 0.0846 -0.1915
v  7.4765 0.0037 0.1451
v  -13.1593 -0.2800 -0.1334
v  -14.8790 -0.2800 0.1645
v  -13.9794 -0.2800 -0.3162
v  -13.1492 -0.2800 -0.2754
v  -13.1593 -0.0367 -0.1334
v  -13.1492 -0.0367 -0.2754
v  -13.9794 -0.0367 -0.3162
v  -14.8283 -0.0367 0.1956
v  -12.7762 -0.1514 -0.3884
v  -12.7894 -0.1514 -0.2019
v  -15.0138 -0.1514 0.2102
v  -13.8664 -0.1514 -0.4419
v  -14.8089 -0.2800 0.4105
v  -13.3613 -0.2800 0.0073
v  -13.0548 -0.1514 -0.0171
v  -14.9557 -0.1514 0.5123
v  -14.8089 -0.0367 0.4105
v  -13.3613 -0.0367 0.0073
v  -15.8024 -0.0367 0.3836
v  -16.2605 -0.1514 0.4771
v  -16.0033 -0.1514 0.5309
v  -15.6066 -0.0367 0.4246
v  -15.6066 -0.2800 0.4246
v  -15.8024 -0.2800 0.3836
v  -13.1308 -0.2800 -0.8053
v  -13.1347 -0.2800 -0.6630
v  -13.9648 -0.2800 -0.7038
v  -14.8130 -0.2800 -1.2704
v  -13.1308 -0.0367 -0.8053
v  -14.7595 -0.0367 -1.2964
v  -13.9648 -0.0367 -0.7038
v  -13.1347 -0.0367 -0.6630
v  -12.7694 -0.1514 -0.7008
v  -12.7746 -0.1514 -0.5140
v  -13.8648 -0.1514 -0.5676
v  -14.9427 -0.1514 -1.3291
v  -14.7191 -0.2800 -1.5083
v  -14.8552 -0.1514 -1.6241
v  -13.0154 -0.1514 -0.9108
v  -13.3180 -0.2800 -0.9652
v  -13.3180 -0.0367 -0.9652
v  -14.7191 -0.0367 -1.5083
v  -15.7105 -0.0367 -1.5790
v  -15.5116 -0.0367 -1.6006
v  -15.8959 -0.1514 -1.7453
v  -16.1572 -0.1514 -1.7169
v  -15.7105 -0.2800 -1.5790
v  -15.5116 -0.2800 -1.6006
v  -13.1298 0.2802 -0.3303
v  -14.7871 0.8015 -0.4969
v  -13.9626 0.2068 -0.4140
v  -13.1384 0.1381 -0.3312
v  -13.1055 0.2802 -0.5724
v  -13.1141 0.1381 -0.5733
v  -13.9383 0.2068 -0.6561
v  -14.7087 0.8257 -0.7335
v  -12.7725 -0.0228 -0.4236
v  -12.7611 0.1638 -0.4225
v  -14.9013 0.8645 -0.6376
v  -13.8548 0.0673 -0.5324
v  -14.6858 1.0361 -0.4867
v  -13.3107 0.4463 -0.3485
v  -12.9987 0.3819 -0.4464
v  -14.8045 1.1564 -0.6279
v  -14.6615 1.0361 -0.7288
v  -13.2864 0.4463 -0.5906
v  -15.6450 1.1400 -0.8277
v  -16.0961 1.2928 -0.7577
v  -15.8354 1.3124 -0.7315
v  -15.4465 1.1549 -0.8077
v  -15.4708 1.1549 -0.5656
v  -15.6694 1.1400 -0.5856
v  -13.1828 -0.6048 -0.3744
v  -13.1680 -0.4633 -0.3733
v  -13.9939 -0.3947 -0.4368
v  -14.9064 -0.8450 -0.5069
v  -13.1641 -0.6048 -0.6170
v  -14.8383 -0.8778 -0.7457
v  -13.9753 -0.3947 -0.6794
v  -13.1494 -0.4633 -0.6159
v  -12.8021 -0.5488 -0.4742
v  -12.7827 -0.3629 -0.4727
v  -13.8673 -0.2728 -0.5560
v  -15.0325 -0.8861 -0.6456
v  -14.8448 -1.0931 -0.5022
v  -14.9847 -1.1900 -0.6419
v  -13.0727 -0.7247 -0.4950
v  -13.3888 -0.7388 -0.3903
v  -13.3702 -0.7388 -0.6329
v  -14.8261 -1.0931 -0.7448
v  -15.8153 -1.0330 -0.8208
v  -15.6215 -1.0805 -0.8059
v  -16.0292 -1.1735 -0.7222
v  -16.2837 -1.1111 -0.7418
v  -15.8340 -1.0330 -0.5782
v  -15.6402 -1.0805 -0.5633
# 121 vertices

vn 0.0192 -0.9991 0.0378
vn 0.0087 -0.9998 0.0165
vn 0.0275 -0.9989 0.0384
vn 0.0955 0.9950 -0.0291
vn 0.0575 0.9983 -0.0115
vn 0.0440 0.9985 -0.0331
vn 0.0943 0.0000 -0.9955
vn -0.0292 0.0000 -0.9996
vn -0.0368 0.0000 -0.9993
vn -0.2576 -0.0000 0.9663
vn -0.1143 -0.0000 0.9934
vn -0.1159 -0.0000 0.9933
vn -0.0488 -0.9957 -0.0787
vn -0.0878 -0.9839 -0.1555
vn 0.0878 0.9839 0.1555
vn 0.0488 0.9957 0.0787
vn -0.1548 0.0000 -0.9879
vn -0.1548 -0.0000 -0.9879
vn 0.0357 -0.0000 0.9994
vn -0.9983 -0.0000 0.0589
vn -0.9983 0.0000 0.0589
vn -0.0354 0.0000 0.9994
vn -0.0252 0.0000 0.9997
vn -0.0253 0.0000 0.9997
vn -0.0074 -0.9999 -0.0137
vn -0.0080 -1.0000 -0.0035
vn -0.0080 -1.0000 -0.0032
vn -0.0077 -0.9999 -0.0134
vn 0.0074 0.9999 0.0137
vn 0.0085 1.0000 0.0035
vn 0.0085 1.0000 0.0032
vn 0.0073 0.9999 0.0136
vn 0.0258 0.0000 -0.9997
vn 0.0361 0.0000 -0.9993
vn 0.0259 0.0000 -0.9997
vn 0.0008 0.0000 1.0000
vn 0.0004 0.0000 1.0000
vn -0.0259 -0.9996 -0.0084
vn -0.0195 -0.9998 -0.0065
vn -0.0153 -0.9999 -0.0080
vn -0.0257 -0.9997 -0.0031
vn 0.0257 0.9997 0.0031
vn 0.0153 0.9999 0.0080
vn 0.0195 0.9998 0.0065
vn 0.0259 0.9996 0.0084
vn -0.0002 0.0000 -1.0000
vn -0.0034 0.0000 -1.0000
vn -0.0030 0.0000 -1.0000
vn -0.0009 0.0000 -1.0000
vn 0.0060 -0.0000 1.0000
vn -0.0037 -0.0000 1.0000
vn 0.0065 -0.0000 1.0000
vn -0.0393 -0.9871 -0.1554
vn -0.0380 -0.9889 -0.1434
vn 0.0380 0.9889 0.1434
vn 0.0393 0.9871 0.1554
vn 0.0209 -0.0000 -0.9998
vn -0.0000 -1.0000 -0.0000
vn 0.0000 -1.0000 -0.0000
vn 0.0000 1.0000 0.0000
vn 0.3322 -0.9429 0.0235
vn 0.9974 0.0127 0.0706
vn 0.9973 0.0194 0.0706
vn -0.4571 -0.3748 -0.8066
vn -0.4638 -0.1780 -0.8679
vn -0.4757 0.1753 -0.8620
vn -0.5030 0.0086 -0.8642
vn 0.2440 -0.4156 0.8762
vn 0.2683 0.0026 0.9633
vn 0.2683 0.0062 0.9633
vn 0.0000 -1.0000 0.0000
vn 0.3647 -0.7700 0.5235
vn -0.1078 0.8503 0.5151
vn -0.1996 0.1010 -0.9747
vn 0.0140 -0.6111 0.7915
vn -0.0000 1.0000 0.0000
vn 0.2997 0.9538 0.0212
vn -0.4102 0.5602 -0.7197
vn -0.4743 0.3951 -0.7867
vn 0.2388 0.4559 0.8574
vn 0.3397 0.8043 0.4876
vn -0.1168 -0.8216 0.5580
vn -0.2185 0.0243 -0.9755
vn 0.0134 0.6544 0.7560
vn -0.0000 -1.0000 0.0000
vn 0.3329 -0.9429 0.0092
vn 0.9994 0.0194 0.0275
vn 0.9995 0.0127 0.0275
vn -0.5340 -0.3748 0.7579
vn -0.5853 0.0086 0.8107
vn -0.5580 0.1753 0.8111
vn -0.5467 -0.1780 0.8182
vn 0.3288 -0.4156 -0.8481
vn 0.3614 0.0062 -0.9324
vn 0.3615 0.0026 -0.9324
vn 0.4143 -0.7700 -0.4852
vn -0.0568 0.8503 -0.5232
vn -0.2942 0.1010 0.9504
vn 0.0916 -0.6111 -0.7863
vn -0.0000 1.0000 -0.0000
vn 0.3004 0.9538 0.0083
vn -0.5492 0.3951 0.7364
vn -0.4788 0.5602 0.6760
vn 0.3217 0.4559 -0.8298
vn 0.3859 0.8043 -0.4520
vn -0.0615 -0.8216 -0.5668
vn -0.3131 0.0243 0.9494
vn 0.0875 0.6544 -0.7510
vn -0.1000 0.0000 0.9950
vn 0.1000 -0.0000 -0.9950
vn 0.2365 -0.0203 0.9714
vn 0.9943 -0.0610 0.0872
vn 0.9949 -0.0610 0.0805
vn -0.5937 -0.7396 0.3170
vn -0.5887 -0.7994 0.1197
vn -0.5644 -0.7920 -0.2329
vn -0.6083 -0.7907 -0.0698
vn 0.3137 0.8366 0.4492
vn 0.3908 0.9197 0.0367
vn 0.3912 0.9197 0.0331
vn 0.3511 0.4711 0.8092
vn 0.1000 0.0000 -0.9950
vn 0.0460 0.5248 -0.8500
vn -0.3142 -0.9400 -0.1331
vn 0.0562 0.7828 0.6198
vn 0.3938 -0.0183 -0.9190
vn -0.4427 -0.6595 -0.6075
vn -0.5312 -0.7176 -0.4505
vn 0.3932 0.8186 -0.4187
vn 0.4792 0.4388 -0.7601
vn -0.1244 0.5685 0.8132
vn -0.3406 -0.9384 -0.0586
vn 0.1775 0.7477 -0.6399
vn -0.0766 -0.0000 0.9971
vn 0.0766 -0.0000 -0.9971
vn 0.2580 -0.0347 0.9655
vn 0.9929 -0.1040 0.0569
vn 0.9925 -0.1040 0.0636
vn -0.4572 0.8215 0.3408
vn -0.4717 0.8806 -0.0449
vn -0.4318 0.8774 -0.2090
vn -0.4468 0.8829 0.1442
vn 0.1820 -0.8839 0.4308
vn 0.2356 -0.9718 0.0119
vn 0.2353 -0.9718 0.0155
vn -0.0766 0.0000 0.9971
vn 0.2869 -0.5354 0.7944
vn 0.0766 0.0000 -0.9971
vn -0.0595 -0.5112 -0.8574
vn -0.1586 0.9808 -0.1135
vn -0.0593 -0.7915 0.6083
vn 0.3711 -0.0313 -0.9281
vn -0.4161 0.8021 -0.4283
vn -0.3418 0.7330 -0.5881
vn 0.2442 -0.8649 -0.4385
vn 0.3838 -0.4987 -0.7771
vn -0.1980 -0.5538 0.8088
vn -0.1832 0.9823 -0.0384
vn 0.0382 -0.7560 -0.6534
# 159 vertex normals

vt 0.4227 0.8935 0.0000
vt 0.4228 0.9299 0.0000
vt 0.2419 0.9244 0.0000
vt 0.2494 0.6744 0.0000
vt 0.4307 0.6891 0.0000
vt 0.4291 0.7254 0.0000
vt 0.4880 0.7759 0.0000
vt 0.6688 0.7673 0.0000
vt 0.6688 0.8018 0.0000
vt 0.2325 0.8261 0.0000
vt 0.2029 0.8178 0.0000
vt 0.2064 0.7838 0.0000
vt 0.2361 0.7921 0.0000
vt 0.4524 0.9018 0.0000
vt 0.4531 0.9188 0.0000
vt 0.4606 0.7033 0.0000
vt 0.4591 0.7202 0.0000
vt 0.6999 0.7704 0.0000
vt 0.6999 0.8049 0.0000
vt 0.0241 0.7657 0.0000
vt 0.8174 0.5341 0.0000
vt 0.8180 0.4936 0.0000
vt 0.8793 0.4939 0.0000
vt 0.8787 0.5345 0.0000
vt 0.0141 0.1354 0.0000
vt 0.4321 0.1456 0.0000
vt 0.4317 0.1767 0.0000
vt 0.0137 0.1664 0.0000
vt 0.4364 0.3846 0.0000
vt 0.0220 0.3893 0.0000
vt 0.0216 0.3377 0.0000
vt 0.4344 0.3465 0.0000
vt 0.4297 0.0710 0.0000
vt 0.0133 0.0680 0.0000
vt 0.0124 0.0473 0.0000
vt 0.4308 0.0557 0.0000
vt 0.4298 0.2715 0.0000
vt 0.0137 0.2593 0.0000
vt 0.0131 0.2282 0.0000
vt 0.4291 0.2404 0.0000
vt 0.6560 0.1511 0.0000
vt 0.6556 0.1822 0.0000
vt 0.8927 0.3890 0.0000
vt 0.6584 0.3778 0.0000
vt 0.6563 0.3406 0.0000
vt 0.8911 0.3472 0.0000
vt 0.8906 0.0780 0.0000
vt 0.6538 0.0769 0.0000
vt 0.6550 0.0620 0.0000
vt 0.8911 0.0612 0.0000
vt 0.8902 0.2851 0.0000
vt 0.6536 0.2781 0.0000
vt 0.6529 0.2470 0.0000
vt 0.8895 0.2539 0.0000
vt 0.8921 0.1569 0.0000
vt 0.9801 0.1579 0.0000
vt 0.9797 0.1890 0.0000
vt 0.8917 0.1879 0.0000
vt 0.9799 0.3855 0.0000
vt 0.9793 0.3472 0.0000
vt 0.9795 0.0794 0.0000
vt 0.9792 0.0640 0.0000
vt 0.9790 0.2864 0.0000
vt 0.9783 0.2553 0.0000
vt 1.0000 0.0000 0.0000
vt 1.0000 1.0000 0.0000
vt 0.0000 1.0000 0.0000
vt 0.0000 0.0000 0.0000
vt 1.0000 0.5100 0.0000
vt 0.0000 0.5100 0.0000
# 70 texture coords

g flecha
usemtl 01___Default
s 2
f 1/1/1 2/2/2 3/3/3 
s 4
f 3/4/4 4/5/5 5/6/6 
s 16
f 3/7/7 2/8/8 4/9/9 
s 64
f 6/10/10 1/11/11 5/12/12 7/13/10 
s 2
f 1/1/1 6/14/13 8/15/14 2/2/2 
s 4
f 4/5/5 9/16/15 7/17/16 5/6/6 
s 16
f 2/8/8 8/18/17 9/19/18 4/9/9 
s 64
f 1/11/11 3/20/19 5/12/12 
usemtl 03___Default
s 32
f 10/21/20 11/22/21 12/23/20 13/24/20 
s 64
f 11/25/22 14/26/23 15/27/24 12/28/22 
s 2
f 14/29/25 11/30/26 10/31/27 16/32/28 
s 4
f 17/33/29 13/34/30 12/35/31 15/36/32 
s 16
f 16/37/33 10/38/34 13/39/34 17/40/35 
s 64
f 14/26/23 18/41/36 19/42/37 15/27/24 
s 2
f 20/43/38 18/44/39 21/45/40 22/46/41 
s 4
f 23/47/42 24/48/43 19/49/44 25/50/45 
s 16
f 22/51/46 21/52/47 24/53/48 23/54/49 
s 64
f 20/55/50 6/56/51 7/57/51 25/58/52 
f 18/41/36 20/55/50 25/58/52 19/42/37 
s 2
f 18/44/39 14/29/25 16/32/28 21/45/40 
s 4
f 24/48/43 17/33/29 15/36/32 19/49/44 
s 16
f 21/52/47 16/37/33 17/40/35 24/53/48 
s 2
f 6/59/53 20/43/38 22/46/41 8/60/54 
s 4
f 9/61/55 23/47/42 25/50/45 7/62/56 
s 16
f 8/63/57 22/51/46 23/54/49 9/64/57 
usemtl 01___Default
s 2
f 26/65/58 27/66/59 28/67/59 29/68/58 
s 4
f 30/68/60 31/65/60 32/66/60 33/67/60 
s 8
f 26/68/61 29/65/61 34/69/62 35/70/63 
s 32
f 28/68/64 27/65/65 36/69/66 37/70/67 
s 64
f 38/68/68 39/65/68 40/69/69 41/70/70 
s off
f 27/68/71 26/65/71 39/65/71 38/68/71 
f 26/65/72 35/69/72 40/69/72 39/65/72 
f 30/66/60 33/67/60 42/67/60 43/66/60 
f 44/67/73 45/70/73 46/70/73 47/67/73 
f 33/67/74 36/70/74 45/70/74 44/67/74 
f 27/68/58 38/68/58 48/68/58 49/68/58 
f 38/68/75 41/70/75 46/70/75 48/68/75 
f 42/67/76 33/67/76 44/67/76 47/67/76 
s 8
f 34/69/62 31/66/77 30/67/77 35/70/63 
s 32
f 36/69/66 33/66/78 32/67/79 37/70/67 
s 64
f 40/69/69 43/66/80 42/67/80 41/70/70 
s off
f 35/69/81 30/66/81 43/66/81 40/69/81 
f 45/70/82 49/68/82 48/68/82 46/70/82 
f 36/70/83 27/68/83 49/68/83 45/70/83 
f 41/70/84 42/67/84 47/67/84 46/70/84 
s 2
f 50/65/85 51/68/58 52/67/85 53/66/85 
s 4
f 54/68/60 55/67/60 56/66/60 57/65/60 
s 8
f 50/68/86 58/70/87 59/69/88 51/65/86 
s 32
f 52/68/89 60/70/90 61/69/91 53/65/92 
s 64
f 62/68/93 63/70/94 64/69/95 65/65/93 
s off
f 53/68/59 62/68/59 65/65/59 50/65/59 
f 50/65/96 65/65/96 64/69/96 58/69/96 
f 54/66/60 66/66/60 67/67/60 55/67/60 
f 68/67/97 69/67/97 70/70/97 71/70/97 
f 55/67/98 68/67/98 71/70/98 61/70/98 
f 53/68/58 72/68/58 73/68/58 62/68/58 
f 62/68/99 73/68/99 70/70/99 63/70/99 
f 67/67/100 69/67/100 68/67/100 55/67/100 
s 8
f 59/69/88 58/70/87 54/67/101 57/66/101 
s 32
f 61/69/91 60/70/90 56/67/102 55/66/103 
s 64
f 64/69/95 63/70/94 67/67/104 66/66/104 
s off
f 58/69/105 64/69/105 66/66/105 54/66/105 
f 71/70/106 70/70/106 73/68/106 72/68/106 
f 61/70/107 71/70/107 72/68/107 53/68/107 
f 63/70/108 70/70/108 69/67/108 67/67/108 
s 2
f 74/65/109 75/66/109 76/67/109 77/68/109 
s 4
f 78/68/110 79/65/110 80/66/110 81/67/110 
s 8
f 74/68/111 77/65/111 82/69/112 83/70/113 
s 32
f 76/68/114 75/65/115 84/69/116 85/70/117 
s 64
f 86/68/118 87/65/118 88/69/119 89/70/120 
s off
f 75/68/109 74/65/109 87/65/109 86/68/109 
f 74/65/121 83/69/121 88/69/121 87/65/121 
f 78/66/122 81/67/122 90/67/122 91/66/122 
f 92/67/123 93/70/123 94/70/123 95/67/123 
f 81/67/124 84/70/124 93/70/124 92/67/124 
f 75/68/109 86/68/109 96/68/109 97/68/109 
f 86/68/125 89/70/125 94/70/125 96/68/125 
f 90/67/110 81/67/110 92/67/110 95/67/110 
s 8
f 82/69/112 79/66/126 78/67/126 83/70/113 
s 32
f 84/69/116 81/66/127 80/67/128 85/70/117 
s 64
f 88/69/119 91/66/129 90/67/129 89/70/120 
s off
f 83/69/130 78/66/130 91/66/130 88/69/130 
f 93/70/131 97/68/131 96/68/131 94/70/131 
f 84/70/132 75/68/132 97/68/132 93/70/132 
f 89/70/133 90/67/133 95/67/133 94/70/133 
s 2
f 98/65/134 99/68/134 100/67/134 101/66/134 
s 4
f 102/68/135 103/67/135 104/66/135 105/65/135 
s 8
f 98/68/136 106/70/137 107/69/138 99/65/136 
s 32
f 100/68/139 108/70/140 109/69/141 101/65/142 
s 64
f 110/68/143 111/70/144 112/69/145 113/65/143 
s off
f 101/68/146 110/68/146 113/65/146 98/65/146 
f 98/65/147 113/65/147 112/69/147 106/69/147 
f 102/66/148 114/66/148 115/67/148 103/67/148 
f 116/67/149 117/67/149 118/70/149 119/70/149 
f 103/67/150 116/67/150 119/70/150 109/70/150 
f 101/68/146 120/68/146 121/68/146 110/68/146 
f 110/68/151 121/68/151 118/70/151 111/70/151 
f 115/67/148 117/67/148 116/67/148 103/67/148 
s 8
f 107/69/138 106/70/137 102/67/152 105/66/152 
s 32
f 109/69/141 108/70/140 104/67/153 103/66/154 
s 64
f 112/69/145 111/70/144 115/67/155 114/66/155 
s off
f 106/69/156 112/69/156 114/66/156 102/66/156 
f 119/70/157 118/70/157 121/68/157 120/68/157 
f 109/70/158 119/70/158 120/68/158 101/68/158 
f 111/70/159 118/70/159 117/67/159 115/67/159 
# 101 polygons - 4 triangles

