# 3ds Max Wavefront OBJ Exporter v0.97b - (c)2007 guruware
# File Created: 29.11.2019 16:30:39

mtllib flecha.mtl

#
# object Box003
#

v  -272.8833 -0.1579 -83.6349
v  -269.8754 -0.1579 -64.2737
v  -271.7026 -0.1579 -63.9898
v  -274.7105 -0.1579 -83.3511
v  -272.8833 1.7790 -83.6349
v  -274.7105 1.7790 -83.3511
v  -271.7026 1.7790 -63.9898
v  -269.8754 1.7790 -64.2737
v  -236.3510 -0.1579 163.5605
v  -234.5238 -0.1579 163.2767
v  -234.5238 1.7790 163.2767
v  -236.3510 1.7790 163.5605
# 12 vertices

vn 0.0000 -1.0000 0.0000
vn 0.0000 -1.0000 -0.0000
vn 0.0000 1.0000 -0.0000
vn -0.1535 0.0000 -0.9881
vn -0.9881 0.0000 0.1535
vn 0.1535 0.0000 0.9881
vn 0.9881 0.0000 -0.1535
# 7 vertex normals

vt 0.5567 0.3777 0.0000
vt 0.5567 0.3860 0.0000
vt 0.4256 0.3860 0.0000
vt 0.4256 0.3777 0.0000
vt 0.4177 0.4656 0.0000
vt 0.5487 0.4656 0.0000
vt 0.5487 0.4740 0.0000
vt 0.4177 0.4740 0.0000
vt 0.3441 0.4353 0.0000
vt 0.3737 0.4353 0.0000
vt 0.3737 0.4648 0.0000
vt 0.3441 0.4648 0.0000
vt 0.4177 0.5071 0.0000
vt 0.4182 0.4994 0.0000
vt 0.5397 0.5078 0.0000
vt 0.5391 0.5155 0.0000
vt 0.3001 0.1461 0.0000
vt 0.3025 0.0830 0.0000
vt 0.3657 0.0854 0.0000
vt 0.3633 0.1485 0.0000
vt 0.0200 0.7446 0.0000
vt 0.9707 0.7446 0.0000
vt 0.9707 0.7674 0.0000
vt 0.0200 0.7674 0.0000
vt 0.0200 0.6736 0.0000
vt 0.9764 0.6736 0.0000
vt 0.9765 0.7148 0.0000
vt 0.0201 0.7148 0.0000
vt 0.9754 0.7837 0.0000
vt 0.9754 0.8158 0.0000
vt 0.0200 0.8158 0.0000
vt 0.0200 0.7837 0.0000
vt 0.0114 0.8455 0.0000
vt 0.9881 0.8455 0.0000
vt 0.9881 0.9030 0.0000
vt 0.0114 0.9030 0.0000
vt 0.5417 0.4215 0.0000
vt 0.5416 0.4292 0.0000
vt 0.4199 0.4284 0.0000
vt 0.4199 0.4207 0.0000
# 40 texture coords

g Box003
usemtl 03___Default
s 2
f 1/1/1 2/2/2 3/3/2 4/4/1 
s 4
f 5/5/3 6/6/3 7/7/3 8/8/3 
s 8
f 1/9/4 4/10/4 6/11/4 5/12/4 
s 16
f 4/13/5 3/14/5 7/15/5 6/16/5 
s 32
f 9/17/6 10/18/6 11/19/6 12/20/6 
s 64
f 10/21/7 2/22/7 8/23/7 11/24/7 
s 2
f 2/25/2 10/26/2 9/27/2 3/28/2 
s 4
f 7/29/3 12/30/3 11/31/3 8/32/3 
s 16
f 3/33/5 9/34/5 12/35/5 7/36/5 
s 64
f 2/37/7 1/38/7 5/39/7 8/40/7 
# 10 polygons

